<svg width="33" height="42" viewBox="0 0 33 42" fill="none" xmlns="http://www.w3.org/2000/svg">
<g filter="url(#filter0_d_1503_778)">
<path d="M1.4058 14.6961C1.92225 15.3461 2.30963 16.1261 2.56793 16.9061C2.82623 17.6861 2.95547 18.5961 2.95561 19.5062C2.95576 20.4163 2.82683 21.3264 2.56878 22.1065C2.31074 22.8866 1.92361 23.6667 1.40738 24.3168C0.762102 25.227 0.891401 26.527 1.7951 27.1769C2.69881 27.8268 3.98964 27.6966 4.63492 26.7864C5.40926 25.7462 5.92543 24.7061 6.44156 23.4059C6.95769 22.1057 7.08656 20.8056 7.08634 19.5055C7.08613 18.2054 6.82775 16.9054 6.44028 15.6054C6.05283 14.4353 5.40721 13.2654 4.63253 12.2254C3.98695 11.3154 2.69608 11.1857 1.79259 11.8358C0.889097 12.486 0.760226 13.7862 1.4058 14.6961Z" fill="white"/>
<path d="M8.50487 10.9247C10.0543 13.3946 10.9584 16.3847 10.9589 19.5049C10.9594 22.6251 10.0563 25.6155 8.50769 28.0859C7.86241 28.9961 8.24988 30.2961 9.15359 30.946C10.1864 31.5959 11.3481 31.2057 11.9934 30.2955C13.9291 27.1749 15.0903 23.5345 15.0896 19.5042C15.089 15.6039 13.9266 11.8338 11.9898 8.71394C11.3442 7.80398 10.0533 7.41417 9.14983 8.06436C8.24634 8.71456 7.85928 9.8847 8.50487 10.9247Z" fill="white"/>
<path d="M15.9912 7.02317C18.1862 10.6631 19.3487 14.9532 19.3494 19.5035C19.3502 24.0538 18.06 28.3444 15.9953 31.985C15.4791 33.0251 15.7375 34.1952 16.7702 34.845C17.803 35.3649 18.9647 35.1047 19.61 34.0645C22.191 29.7738 23.6101 24.8332 23.6093 19.5028C23.6084 14.1724 22.1876 9.23231 19.6052 4.94243C19.0887 3.90244 17.7978 3.64263 16.7652 4.16284C15.7326 4.81305 15.4747 5.98318 15.9912 7.02317Z" fill="white"/>
<path d="M23.4774 3.12166C26.189 7.93156 27.868 13.5217 27.869 19.5021C27.87 25.4825 26.3219 31.0732 23.4828 35.884C22.9666 36.9242 23.225 38.0942 24.2578 38.7441C25.2906 39.2639 26.4523 39.0037 27.0975 37.9636C30.1947 32.5027 32.0009 26.2619 31.9998 19.5014C31.9986 12.741 30.1904 6.5008 27.0915 1.04092C26.575 0.000931587 25.2841 -0.258875 24.2515 0.261331C23.2189 0.781538 22.9609 2.08167 23.4774 3.12166Z" fill="white"/>
</g>
<defs>
<filter id="filter0_d_1503_778" x="0.00219727" y="0.00109863" width="32.9976" height="41.0028" filterUnits="userSpaceOnUse" color-interpolation-filters="sRGB">
<feFlood flood-opacity="0" result="BackgroundImageFix"/>
<feColorMatrix in="SourceAlpha" type="matrix" values="0 0 0 0 0 0 0 0 0 0 0 0 0 0 0 0 0 0 127 0" result="hardAlpha"/>
<feOffset dy="1"/>
<feGaussianBlur stdDeviation="0.5"/>
<feColorMatrix type="matrix" values="0 0 0 0 1 0 0 0 0 1 0 0 0 0 1 0 0 0 0.25 0"/>
<feBlend mode="normal" in2="BackgroundImageFix" result="effect1_dropShadow_1503_778"/>
<feBlend mode="normal" in="SourceGraphic" in2="effect1_dropShadow_1503_778" result="shape"/>
</filter>
</defs>
</svg>
